<svg xmlns="http://www.w3.org/2000/svg" width="1284" height="216" viewBox="0 0 1284 216" fill="none"><path d="M272.934 159V56.282H316.516C324.011 56.282 330.479 57.2573 335.92 59.208C341.464 61.056 345.776 64.0847 348.856 68.294C351.936 72.4007 353.476 77.8933 353.476 84.772C353.476 89.392 352.347 93.1907 350.088 96.168C347.829 99.1453 345.109 101.558 341.926 103.406C338.743 105.151 335.766 106.537 332.994 107.564L330.222 102.174C335.869 102.379 340.797 103.56 345.006 105.716C349.318 107.769 352.655 110.695 355.016 114.494C357.48 118.19 358.712 122.656 358.712 127.892C358.712 135.079 356.967 140.982 353.476 145.602C350.088 150.119 345.519 153.507 339.77 155.766C334.021 157.922 327.655 159 320.674 159H272.934ZM297.882 139.75H318.826C321.393 139.75 323.754 139.391 325.91 138.672C328.066 137.851 329.811 136.516 331.146 134.668C332.481 132.717 333.148 130.151 333.148 126.968C333.148 124.607 332.737 122.656 331.916 121.116C331.095 119.576 329.965 118.395 328.528 117.574C327.193 116.65 325.653 115.983 323.908 115.572C322.163 115.161 320.315 114.956 318.364 114.956H297.882V139.75ZM297.882 96.63H317.902C319.647 96.63 321.29 96.322 322.83 95.706C324.37 94.9873 325.602 93.9093 326.526 92.472C327.553 91.0347 328.066 89.1353 328.066 86.774C328.066 82.5647 326.937 79.69 324.678 78.15C322.419 76.5073 319.647 75.686 316.362 75.686H297.882V96.63ZM376.252 159V56.282H426.302C437.904 56.282 446.99 59.0027 453.56 64.444C460.131 69.7827 463.416 77.9447 463.416 88.93C463.416 93.4473 462.492 97.9133 460.644 102.328C458.796 106.64 456.076 110.387 452.482 113.57C448.889 116.65 444.372 118.652 438.93 119.576L437.39 111.106L468.652 159H436.928L411.21 114.186L422.298 123.58H401.2V159H376.252ZM401.2 105.254H422.144C426.559 105.254 430.05 104.073 432.616 101.712C435.183 99.3507 436.466 95.4493 436.466 90.008C436.466 85.2853 435.286 81.692 432.924 79.228C430.666 76.764 427.432 75.532 423.222 75.532H401.2V105.254ZM476.504 159L515.312 56.282H542.57L578.914 159H553.35L520.548 62.134L532.714 61.056L500.066 159H476.504ZM498.372 136.824L503.454 118.498H550.116L552.426 136.824H498.372ZM591.913 159V56.282H616.861V159H591.913ZM638.684 159V56.282H659.936L712.758 127.43L705.366 142.83V56.282H728.312V159H709.524L655.778 88.776L661.63 77.534V159H638.684ZM781.385 159V114.648L742.423 56.282H773.069L802.329 105.408H790.779L817.421 56.282H842.215L802.791 120.808L806.333 107.564V159H781.385ZM899.311 159V56.282H942.893C950.388 56.282 956.856 57.2573 962.297 59.208C967.841 61.056 972.153 64.0847 975.233 68.294C978.313 72.4007 979.853 77.8933 979.853 84.772C979.853 89.392 978.724 93.1907 976.465 96.168C974.206 99.1453 971.486 101.558 968.303 103.406C965.12 105.151 962.143 106.537 959.371 107.564L956.599 102.174C962.246 102.379 967.174 103.56 971.383 105.716C975.695 107.769 979.032 110.695 981.393 114.494C983.857 118.19 985.089 122.656 985.089 127.892C985.089 135.079 983.344 140.982 979.853 145.602C976.465 150.119 971.896 153.507 966.147 155.766C960.398 157.922 954.032 159 947.051 159H899.311ZM924.259 139.75H945.203C947.77 139.75 950.131 139.391 952.287 138.672C954.443 137.851 956.188 136.516 957.523 134.668C958.858 132.717 959.525 130.151 959.525 126.968C959.525 124.607 959.114 122.656 958.293 121.116C957.472 119.576 956.342 118.395 954.905 117.574C953.57 116.65 952.03 115.983 950.285 115.572C948.54 115.161 946.692 114.956 944.741 114.956H924.259V139.75ZM924.259 96.63H944.279C946.024 96.63 947.667 96.322 949.207 95.706C950.747 94.9873 951.979 93.9093 952.903 92.472C953.93 91.0347 954.443 89.1353 954.443 86.774C954.443 82.5647 953.314 79.69 951.055 78.15C948.796 76.5073 946.024 75.686 942.739 75.686H924.259V96.63ZM1048.37 161.156C1038.2 161.156 1029.37 159.257 1021.88 155.458C1014.38 151.557 1008.53 145.653 1004.32 137.748C1000.22 129.843 998.163 119.833 998.163 107.718C998.163 90.162 1002.58 76.8667 1011.41 67.832C1020.24 58.7973 1032.56 54.28 1048.37 54.28C1058.53 54.28 1067.36 56.2307 1074.86 60.132C1082.45 63.9307 1088.3 69.7313 1092.41 77.534C1096.52 85.3367 1098.57 95.3467 1098.57 107.564C1098.57 125.223 1094.16 138.569 1085.33 147.604C1076.6 156.639 1064.28 161.156 1048.37 161.156ZM1048.37 140.674C1053.6 140.674 1058.02 139.596 1061.61 137.44C1065.31 135.284 1068.08 131.793 1069.93 126.968C1071.88 122.04 1072.85 115.572 1072.85 107.564C1072.85 99.4533 1071.88 92.9853 1069.93 88.16C1068.08 83.3347 1065.31 79.8953 1061.61 77.842C1058.02 75.686 1053.6 74.608 1048.37 74.608C1043.13 74.608 1038.72 75.686 1035.12 77.842C1031.53 79.998 1028.76 83.4887 1026.81 88.314C1024.96 93.1393 1024.04 99.6587 1024.04 107.872C1024.04 115.983 1024.96 122.451 1026.81 127.276C1028.76 131.999 1031.53 135.438 1035.12 137.594C1038.72 139.647 1043.13 140.674 1048.37 140.674ZM1150.67 161.156C1145.43 161.156 1140.71 160.899 1136.5 160.386C1132.29 159.873 1128.39 159.103 1124.8 158.076C1121.2 157.049 1117.71 155.715 1114.33 154.072V130.356C1119.05 134.155 1124.39 137.029 1130.34 138.98C1136.3 140.931 1141.94 141.906 1147.28 141.906C1152 141.906 1155.6 141.033 1158.06 139.288C1160.63 137.44 1161.91 134.668 1161.91 130.972C1161.91 128.2 1160.73 125.993 1158.37 124.35C1156.11 122.605 1153.08 121.116 1149.28 119.884C1145.49 118.549 1141.22 117.061 1136.5 115.418C1133.52 114.494 1130.6 113.313 1127.72 111.876C1124.85 110.439 1122.28 108.642 1120.02 106.486C1117.77 104.227 1115.97 101.507 1114.63 98.324C1113.3 95.1413 1112.63 91.24 1112.63 86.62C1112.63 82.4107 1113.4 78.3553 1114.94 74.454C1116.48 70.5527 1118.84 67.062 1122.03 63.982C1125.31 60.902 1129.47 58.4893 1134.5 56.744C1139.53 54.896 1145.43 53.972 1152.21 53.972C1156.42 53.972 1160.12 54.2287 1163.3 54.742C1166.58 55.2553 1169.71 56.0253 1172.69 57.052C1175.67 57.976 1178.7 59.208 1181.78 60.748V84.772C1179.42 82.8213 1176.75 81.0247 1173.77 79.382C1170.9 77.6367 1167.87 76.1993 1164.68 75.07C1161.5 73.9407 1158.16 73.3247 1154.67 73.222C1151.59 73.1193 1148.77 73.4273 1146.2 74.146C1143.64 74.8647 1141.64 76.0453 1140.2 77.688C1138.76 79.228 1138.04 81.23 1138.04 83.694C1138.04 86.5687 1138.91 88.8273 1140.66 90.47C1142.41 92.1127 1144.82 93.4987 1147.9 94.628C1150.98 95.6547 1154.42 96.784 1158.22 98.016C1162.43 99.248 1166.28 100.634 1169.77 102.174C1173.36 103.611 1176.49 105.459 1179.16 107.718C1181.83 109.977 1183.88 112.749 1185.32 116.034C1186.76 119.319 1187.48 123.272 1187.48 127.892C1187.48 134.052 1186.04 139.699 1183.16 144.832C1180.29 149.863 1176.13 153.867 1170.69 156.844C1165.25 159.719 1158.58 161.156 1150.67 161.156ZM1239.55 161.156C1234.32 161.156 1229.59 160.899 1225.38 160.386C1221.17 159.873 1217.27 159.103 1213.68 158.076C1210.09 157.049 1206.6 155.715 1203.21 154.072V130.356C1207.93 134.155 1213.27 137.029 1219.22 138.98C1225.18 140.931 1230.82 141.906 1236.16 141.906C1240.89 141.906 1244.48 141.033 1246.94 139.288C1249.51 137.44 1250.79 134.668 1250.79 130.972C1250.79 128.2 1249.61 125.993 1247.25 124.35C1244.99 122.605 1241.96 121.116 1238.17 119.884C1234.37 118.549 1230.11 117.061 1225.38 115.418C1222.41 114.494 1219.48 113.313 1216.61 111.876C1213.73 110.439 1211.16 108.642 1208.91 106.486C1206.65 104.227 1204.85 101.507 1203.52 98.324C1202.18 95.1413 1201.51 91.24 1201.51 86.62C1201.51 82.4107 1202.28 78.3553 1203.82 74.454C1205.36 70.5527 1207.72 67.062 1210.91 63.982C1214.19 60.902 1218.35 58.4893 1223.38 56.744C1228.41 54.896 1234.32 53.972 1241.09 53.972C1245.3 53.972 1249 54.2287 1252.18 54.742C1255.46 55.2553 1258.6 56.0253 1261.57 57.052C1264.55 57.976 1267.58 59.208 1270.66 60.748V84.772C1268.3 82.8213 1265.63 81.0247 1262.65 79.382C1259.78 77.6367 1256.75 76.1993 1253.57 75.07C1250.38 73.9407 1247.05 73.3247 1243.56 73.222C1240.48 73.1193 1237.65 73.4273 1235.09 74.146C1232.52 74.8647 1230.52 76.0453 1229.08 77.688C1227.64 79.228 1226.92 81.23 1226.92 83.694C1226.92 86.5687 1227.8 88.8273 1229.54 90.47C1231.29 92.1127 1233.7 93.4987 1236.78 94.628C1239.86 95.6547 1243.3 96.784 1247.1 98.016C1251.31 99.248 1255.16 100.634 1258.65 102.174C1262.24 103.611 1265.37 105.459 1268.04 107.718C1270.71 109.977 1272.76 112.749 1274.2 116.034C1275.64 119.319 1276.36 123.272 1276.36 127.892C1276.36 134.052 1274.92 139.699 1272.05 144.832C1269.17 149.863 1265.01 153.867 1259.57 156.844C1254.13 159.719 1247.46 161.156 1239.55 161.156Z" fill="url(#paint0_linear_71_69)"></path><rect width="216" height="216" rx="17.28" fill="url(#paint1_linear_71_69)"></rect><path d="M127.009 31.968H49.2489L49.248 69.984H127.009L88.1288 108H127.009L165.889 69.984L127.009 31.968Z" fill="white"></path><path d="M88.129 69.9839L49.249 107.999V184.031L88.129 146.016V69.9839Z" fill="white"></path><path d="M127.009 146.016H88.1289L88.1289 184.032H127.009L165.889 146.016V108L127.009 108V146.016Z" fill="white"></path><defs><linearGradient id="paint0_linear_71_69" x1="773" y1="53.8788" x2="773" y2="170.236" gradientUnits="userSpaceOnUse"><stop stop-color="#6850FF"></stop><stop offset="1" stop-color="#AB69FE"></stop></linearGradient><linearGradient id="paint1_linear_71_69" x1="108" y1="0" x2="108" y2="216" gradientUnits="userSpaceOnUse"><stop stop-color="#6850FF"></stop><stop offset="1" stop-color="#AB69FE"></stop></linearGradient></defs></svg>