<svg class="svg-icon" style="width: 1.001953125em; height: 1em;vertical-align: middle;fill: #4a6ccc;overflow: hidden;" viewBox="0 0 1026 1024" version="1.1" xmlns="http://www.w3.org/2000/svg"><path d="M852.89 850.225c-140.217 140.647-299.445 209.063-355.545 152.818a61.934 61.934 0 0 1-10.659-15.627c-4.825-3.457-10.37-5.474-14.763-9.795a108.313 108.313 0 0 1 0-152.818 107.52 107.52 0 0 1 152.386 0c4.754 4.753 6.986 10.73 10.659 16.06a664.855 664.855 0 0 0 116.378-92.47 664.206 664.206 0 0 0 92.181-116.666c-5.33-3.673-11.306-5.977-15.988-10.658a108.169 108.169 0 0 1 0-152.819 107.448 107.448 0 0 1 152.315 0c4.393 4.321 6.337 9.866 9.794 14.763 5.762 2.953 11.163 6.194 15.628 10.659 56.1 56.317-12.099 215.905-152.387 356.553zM733.413 621.573c-16.924 19.084-33.848 38.24-52.86 57.18-18.94 19.013-38.096 35.937-57.253 52.789a183.137 183.137 0 0 0-227.571 24.845 182.201 182.201 0 0 0-7.562 249.32l-244.28-0.575C64.456 1005.132 0 957.6 0 876.799V218.353C0 137.623 65.463 72.16 146.265 72.088v2.233a144.033 144.033 0 0 0 144.033 143.96h297.067a144.033 144.033 0 0 0 144.033-143.96v-2.233h0.936c80.946 0 131.862 60.926 131.862 141.728v129.126c-38.745 4.969-76.193 21.605-105.936 51.275a182.705 182.705 0 0 0-24.846 227.356zM612.14 357.849h-432.1a36.008 36.008 0 0 0 0 72.016h432.098a36.008 36.008 0 0 0 0-72.016z m0 144.033h-432.1a36.008 36.008 0 0 0 0 72.016h432.098a36.008 36.008 0 0 0 0-72.016z m-24.774-355.617H292.602c-39.825 0-72.016-32.191-72.016-71.944v-2.305A72.016 72.016 0 0 1 292.602 0h294.763a72.016 72.016 0 0 1 72.016 72.016v2.305a71.944 71.944 0 0 1-72.016 71.944z" fill="#4a6ccc" /></svg>