<svg width="121" height="39" viewBox="0 0 121 39" fill="none" xmlns="http://www.w3.org/2000/svg">
<path d="M36.7642 38.4822H1.71795C1.26248 38.4817 0.8258 38.3005 0.50373 37.9785C0.181659 37.6564 0.000500199 37.2197 0 36.7642V1.71795C0.000500199 1.26248 0.181659 0.8258 0.50373 0.50373C0.8258 0.181659 1.26248 0.000500199 1.71795 0L36.7642 0C37.2197 0.000500199 37.6564 0.181659 37.9785 0.50373C38.3005 0.8258 38.4817 1.26248 38.4822 1.71795V36.7642C38.4817 37.2197 38.3005 37.6564 37.9785 37.9785C37.6564 38.3005 37.2197 38.4817 36.7642 38.4822ZM3.36101 1.64288C2.90554 1.64343 2.46889 1.8246 2.14683 2.14666C1.82477 2.46872 1.6436 2.90537 1.64305 3.36084V35.1212C1.6436 35.5766 1.82477 36.0133 2.14683 36.3354C2.46889 36.6574 2.90554 36.8386 3.36101 36.8391H35.1212C35.5767 36.8386 36.0133 36.6575 36.3354 36.3354C36.6575 36.0133 36.8386 35.5767 36.8391 35.1212V3.36101C36.8386 2.90554 36.6574 2.46889 36.3354 2.14683C36.0133 1.82477 35.5766 1.6436 35.1212 1.64305L3.36101 1.64288Z" fill="url(#paint0_linear_110_297)"/>
<path d="M25.4339 27.724C25.2546 27.6082 25.1178 27.4371 25.0443 27.2367L20.4556 16.5219V26.4872C20.4581 26.6167 20.4347 26.7453 20.3868 26.8656C20.3389 26.9859 20.2676 27.0955 20.1769 27.1879C20.0862 27.2803 19.978 27.3537 19.8586 27.4038C19.7392 27.4539 19.611 27.4797 19.4815 27.4797C19.3521 27.4797 19.2239 27.4539 19.1045 27.4038C18.9851 27.3537 18.8769 27.2803 18.7862 27.1879C18.6955 27.0955 18.6241 26.9859 18.5763 26.8656C18.5284 26.7453 18.505 26.6167 18.5075 26.4872V24.3118C17.9224 25.3308 17.0834 26.181 16.0721 26.7794C15.0119 27.4441 13.7844 27.7933 12.5331 27.786C11.145 27.8041 9.78288 27.4085 8.62046 26.6495C7.4473 25.8749 6.50496 24.7981 5.89286 23.5325C5.21816 22.148 4.87893 20.6241 4.90263 19.0842C4.87765 17.5474 5.22289 16.0271 5.90918 14.6519C6.52908 13.3995 7.47755 12.339 8.65327 11.5838C9.80153 10.8506 11.1382 10.467 12.5005 10.4798C13.7539 10.4679 14.9875 10.7931 16.0721 11.4214C17.1018 11.9955 17.9465 12.8512 18.5073 13.8882V11.876C18.501 11.6107 18.6002 11.3538 18.7832 11.1617C18.9582 10.9846 19.1937 10.8806 19.4424 10.8704C19.6911 10.8602 19.9344 10.9447 20.1232 11.1069C20.2724 11.2252 20.39 11.3787 20.4656 11.5535L25.9854 24.7036L31.5381 11.5542C31.6187 11.367 31.7475 11.2045 31.9115 11.0833C32.0753 10.9638 32.2786 10.9115 32.4798 10.9371C32.7053 10.9404 32.923 11.0206 33.0967 11.1644C33.1887 11.2312 33.2632 11.3191 33.3141 11.4208C33.3649 11.5225 33.3905 11.6349 33.3887 11.7485C33.3895 11.9402 33.345 12.1293 33.2589 12.3005L26.895 27.2367C26.8077 27.4108 26.6795 27.5611 26.5215 27.675C26.3776 27.7876 26.2009 27.8502 26.0182 27.8535C25.9821 27.857 25.9467 27.8589 25.9118 27.859C25.7429 27.8606 25.577 27.8137 25.4339 27.724ZM9.69177 13.1748C8.78085 13.7735 8.05102 14.61 7.58127 15.5936C7.05911 16.682 6.79783 17.8771 6.81815 19.084C6.80023 20.2994 7.05544 21.5034 7.56495 22.607C8.02096 23.6077 8.74605 24.4621 9.65931 25.0747C10.5693 25.6736 11.6385 25.9849 12.7277 25.968C13.8065 25.9818 14.8644 25.6705 15.7637 25.0747C16.6789 24.4598 17.4086 23.6065 17.8741 22.607C18.394 21.5063 18.6551 20.3012 18.6372 19.084C18.6516 17.8933 18.3904 16.7153 17.8741 15.6423C17.4051 14.6493 16.6758 13.8022 15.7635 13.1909C14.8642 12.5951 13.8063 12.2838 12.7276 12.2976C11.6512 12.2835 10.5948 12.5888 9.69177 13.1748Z" fill="#25AAE2"/>
<path d="M64.9343 17.3718C64.9629 17.4723 64.9802 17.5757 64.9858 17.68C64.9895 17.7814 64.9707 17.8823 64.9308 17.9756C64.8908 18.0688 64.8307 18.152 64.7548 18.2193C64.6077 18.3539 64.4149 18.4276 64.2155 18.4255C64.0543 18.4286 63.8965 18.379 63.7661 18.2842C63.6364 18.1884 63.5345 18.0599 63.4708 17.9118L61.5441 13.211H53.1971L51.2965 17.9111C51.253 18.0608 51.1616 18.192 51.0364 18.2848C50.9112 18.3776 50.759 18.4268 50.6031 18.4248C50.5057 18.4322 50.4078 18.4201 50.3152 18.3892C50.2226 18.3582 50.1371 18.309 50.0637 18.2446C49.9381 18.1123 49.8649 17.9389 49.8575 17.7567V17.6797C49.8545 17.6018 49.8631 17.5239 49.8831 17.4486L56.6636 0.85731C56.7178 0.69898 56.8226 0.562896 56.9619 0.470061C57.1011 0.377227 57.2671 0.332802 57.4341 0.343642C57.5953 0.340471 57.7531 0.390059 57.8835 0.484858C58.0132 0.580671 58.1151 0.709202 58.1788 0.85731L64.9343 17.3718ZM53.7877 11.6957H60.9277L57.332 2.91198L53.7877 11.6957ZM77.3135 5.352C77.4156 5.34879 77.5173 5.36652 77.6122 5.40407C77.7072 5.44162 77.7934 5.49821 77.8657 5.57035C77.9378 5.64262 77.9944 5.72888 78.032 5.82384C78.0695 5.9188 78.0873 6.02044 78.0841 6.1225V13.3656C78.0841 15.0436 77.6132 16.332 76.6716 17.231C75.7299 18.1299 74.4286 18.5794 72.7677 18.5794C71.1239 18.5794 69.8355 18.1299 68.9023 17.231C67.9691 16.332 67.5025 15.0436 67.5027 13.3656V6.1225C67.4995 6.02044 67.5172 5.9188 67.5547 5.82384C67.5923 5.72888 67.6489 5.64262 67.721 5.57035C67.7932 5.49831 67.8793 5.44179 67.9741 5.40424C68.0689 5.36669 68.1704 5.34891 68.2723 5.352C68.3744 5.34879 68.476 5.36652 68.571 5.40407C68.6659 5.44162 68.7522 5.49821 68.8244 5.57035C68.8966 5.64262 68.9532 5.72888 68.9907 5.82384C69.0283 5.9188 69.046 6.02044 69.0428 6.1225V13.3656C69.0428 14.5984 69.3681 15.5358 70.0188 16.1779C70.6694 16.8199 71.5857 17.1409 72.7675 17.1409C73.9661 17.1409 74.895 16.8199 75.5542 16.1779C76.2134 15.5358 76.543 14.5984 76.543 13.3656V6.1225C76.5398 6.02044 76.5576 5.9188 76.5951 5.82384C76.6327 5.72888 76.6893 5.64262 76.7614 5.57035C76.8337 5.49821 76.9199 5.44162 77.0149 5.40407C77.1098 5.36652 77.2115 5.34879 77.3135 5.352ZM84.6846 6.7645V15.3684C84.6846 16.019 84.8045 16.4599 85.0442 16.6912C85.1717 16.809 85.3214 16.9003 85.4845 16.9598C85.6476 17.0193 85.8209 17.0459 85.9944 17.0379C86.125 17.0333 86.2545 17.0116 86.3795 16.9733C86.4962 16.9368 86.617 16.9152 86.7391 16.909C86.8157 16.9092 86.8912 16.9266 86.9601 16.96C87.029 16.9933 87.0895 17.0417 87.1372 17.1016C87.2468 17.2254 87.3063 17.3857 87.3041 17.551C87.3041 17.7907 87.1672 17.9919 86.8932 18.1545C86.5961 18.3232 86.2587 18.4075 85.9172 18.3985C85.5027 18.4036 85.089 18.3606 84.6844 18.2702C84.3249 18.1846 83.9782 17.9278 83.6442 17.4997C83.3102 17.0715 83.1433 16.3866 83.1434 15.445V6.76467H81.2688C81.0729 6.7683 80.8836 6.69417 80.7422 6.55852C80.6714 6.49337 80.6152 6.41385 80.5776 6.32526C80.5399 6.23668 80.5216 6.14108 80.5239 6.04485C80.5216 5.94862 80.5399 5.85302 80.5776 5.76443C80.6152 5.67585 80.6714 5.59632 80.7422 5.53118C80.8836 5.39552 81.0729 5.32139 81.2688 5.32502H83.1436V2.47545C83.1404 2.37339 83.1581 2.27175 83.1957 2.17679C83.2332 2.08184 83.2898 1.99557 83.362 1.9233C83.4342 1.85116 83.5205 1.79457 83.6154 1.75702C83.7104 1.71947 83.812 1.70175 83.9141 1.70495C84.0162 1.70175 84.1178 1.71947 84.2128 1.75702C84.3077 1.79457 84.394 1.85116 84.4663 1.9233C84.5384 1.99557 84.595 2.08184 84.6325 2.17679C84.6701 2.27175 84.6878 2.37339 84.6846 2.47545V5.32554H87.2529C87.3481 5.32648 87.442 5.34765 87.5284 5.38763C87.6147 5.42762 87.6916 5.48551 87.7539 5.55746C87.8917 5.69311 87.9702 5.87778 87.9723 6.07113C87.9756 6.16448 87.9589 6.25745 87.9234 6.34383C87.8878 6.4302 87.8342 6.50797 87.7661 6.57192C87.6269 6.70123 87.4423 6.77044 87.2524 6.7645H84.6846ZM100.737 5.01803C100.915 5.02063 101.087 5.08409 101.225 5.1979C101.297 5.25071 101.356 5.3203 101.397 5.40077C101.437 5.48124 101.457 5.57023 101.456 5.6602C101.456 5.81179 101.421 5.96136 101.353 6.09673L96.3191 17.9109C96.25 18.0486 96.1487 18.1675 96.0238 18.2576C95.91 18.3467 95.7702 18.3962 95.6257 18.3988C95.4644 18.4181 95.3013 18.3817 95.1634 18.2958C95.0216 18.2042 94.9134 18.069 94.8552 17.9106L89.7955 6.0969C89.7912 6.04361 89.7782 5.99139 89.757 5.94228C89.7318 5.87647 89.7188 5.80661 89.7186 5.73613C89.7149 5.54026 89.7891 5.35093 89.9247 5.20958C90.0023 5.13372 90.095 5.07507 90.1968 5.03745C90.2985 4.99982 90.4071 4.98407 90.5153 4.99122C90.6682 4.99079 90.8171 5.04038 90.9392 5.13244C91.0688 5.22825 91.1708 5.35679 91.2345 5.50489L95.6 15.9081L99.9918 5.50644C100.055 5.35833 100.157 5.2298 100.287 5.13399C100.417 5.03939 100.578 4.99779 100.737 5.01803ZM105.899 17.6278C105.902 17.7299 105.884 17.8315 105.847 17.9265C105.809 18.0214 105.753 18.1077 105.681 18.18C105.608 18.2521 105.522 18.3087 105.427 18.3462C105.332 18.3838 105.231 18.4015 105.128 18.3983C105.026 18.4015 104.925 18.3838 104.83 18.3462C104.735 18.3087 104.649 18.2521 104.576 18.18C104.504 18.1077 104.448 18.0214 104.41 17.9265C104.372 17.8315 104.355 17.7299 104.358 17.6278V5.8143C104.355 5.71223 104.372 5.6106 104.41 5.51564C104.448 5.42068 104.504 5.33441 104.576 5.26215C104.649 5.19001 104.735 5.13342 104.83 5.09587C104.925 5.05831 105.026 5.04059 105.128 5.0438C105.231 5.04059 105.332 5.05831 105.427 5.09587C105.522 5.13342 105.608 5.19001 105.681 5.26215C105.753 5.33441 105.809 5.42068 105.847 5.51564C105.884 5.6106 105.902 5.71223 105.899 5.8143V17.6278ZM105.128 3.32223C104.842 3.34028 104.559 3.25357 104.332 3.07828C104.236 2.98909 104.16 2.87938 104.111 2.75718C104.062 2.63497 104.041 2.50338 104.05 2.37203V2.1152C104.041 1.9827 104.064 1.85005 104.115 1.72756C104.166 1.60508 104.245 1.49605 104.345 1.40895C104.578 1.2349 104.864 1.1485 105.154 1.165C105.839 1.165 106.181 1.48173 106.181 2.1152V2.37203C106.19 2.50224 106.17 2.6328 106.124 2.75471C106.077 2.87663 106.005 2.98701 105.912 3.07828C105.69 3.25514 105.411 3.3425 105.128 3.32309V3.32223ZM118.124 16.96C118.223 16.9559 118.322 16.972 118.415 17.0075C118.508 17.0429 118.592 17.0969 118.663 17.1662C118.731 17.2332 118.784 17.3133 118.82 17.4017C118.855 17.49 118.872 17.5847 118.869 17.6799C118.872 17.775 118.855 17.8697 118.82 17.958C118.784 18.0464 118.731 18.1265 118.663 18.1935C118.592 18.2628 118.508 18.3168 118.415 18.3522C118.322 18.3877 118.223 18.4038 118.124 18.3997H109.777C109.674 18.403 109.573 18.3827 109.479 18.3404C109.386 18.2981 109.303 18.2349 109.238 18.1557C109.111 18.0191 109.038 17.8413 109.032 17.655C109.03 17.4358 109.113 17.2244 109.263 17.0643L116.865 6.53429H110.419C110.223 6.53792 110.034 6.46379 109.893 6.32814C109.822 6.26291 109.766 6.18333 109.728 6.09472C109.691 6.00611 109.673 5.9105 109.675 5.8143C109.673 5.71807 109.691 5.62247 109.729 5.53388C109.766 5.4453 109.822 5.36577 109.893 5.30063C110.035 5.16497 110.224 5.09085 110.42 5.09447H118.305C118.403 5.09263 118.499 5.11239 118.588 5.15235C118.677 5.1923 118.756 5.25145 118.819 5.32554C118.954 5.47266 119.027 5.66542 119.025 5.86481C119.019 6.07041 118.947 6.26854 118.819 6.42984L111.191 16.9599L118.124 16.96Z" fill="#2B2B2B"/>
<path d="M54.7171 35.7162C53.8925 35.7162 53.1137 35.6189 52.3807 35.4242C51.6592 35.218 51.035 34.9202 50.5081 34.5308C50.3249 34.4049 50.2161 34.256 50.1817 34.0842C50.1474 33.9124 50.1646 33.752 50.2333 33.6031C50.3134 33.4543 50.428 33.3569 50.5769 33.3111C50.7257 33.2538 50.8975 33.2882 51.0922 33.4142C51.6076 33.7921 52.1574 34.0613 52.7415 34.2216C53.3256 34.3819 53.9841 34.4621 54.7171 34.4621C55.7479 34.4621 56.5095 34.2731 57.002 33.8952C57.5059 33.5058 57.7579 32.9961 57.7579 32.3662C57.7579 31.8623 57.5747 31.4614 57.2082 31.1636C56.8531 30.8659 56.2518 30.6311 55.4043 30.4593L53.6176 30.0985C52.5411 29.8695 51.7336 29.4972 51.1953 28.9818C50.6685 28.455 50.4051 27.7564 50.4051 26.8859C50.4051 26.1644 50.5883 25.5345 50.9548 24.9962C51.3328 24.4579 51.8539 24.0399 52.5181 23.7421C53.1824 23.4443 53.9498 23.2954 54.8202 23.2954C55.5417 23.2954 56.2118 23.3985 56.8302 23.6046C57.4601 23.7993 58.0271 24.0971 58.531 24.498C58.6913 24.624 58.783 24.7729 58.8059 24.9446C58.8402 25.105 58.8173 25.2539 58.7371 25.3913C58.657 25.5288 58.5424 25.6204 58.3936 25.6662C58.2447 25.7005 58.0671 25.6547 57.861 25.5288C57.4029 25.1737 56.9218 24.9217 56.4179 24.7729C55.9254 24.624 55.3871 24.5495 54.803 24.5495C53.8982 24.5495 53.1767 24.7614 52.6384 25.1852C52.1001 25.5975 51.831 26.1472 51.831 26.8344C51.831 27.3841 51.997 27.8194 52.3292 28.14C52.6728 28.4607 53.2282 28.6955 53.9956 28.8444L55.7823 29.2224C56.939 29.4629 57.7923 29.8294 58.342 30.3218C58.9032 30.8029 59.1838 31.4614 59.1838 32.2975C59.1838 32.9732 59.0006 33.5688 58.6341 34.0842C58.279 34.5996 57.7636 35.0004 57.0879 35.2867C56.4236 35.5731 55.6334 35.7162 54.7171 35.7162Z" fill="#2B2B2B"/>
<path d="M64.6509 35.7162C63.8378 35.7162 63.1334 35.5387 62.5379 35.1837C61.9423 34.8286 61.4784 34.3304 61.1463 33.689C60.8256 33.0362 60.6653 32.2689 60.6653 31.387C60.6653 30.5051 60.8256 29.7435 61.1463 29.1021C61.4784 28.4493 61.9423 27.9453 62.5379 27.5903C63.1334 27.2353 63.8378 27.0577 64.6509 27.0577C65.4526 27.0577 66.1513 27.2353 66.7468 27.5903C67.3539 27.9453 67.8177 28.4493 68.1384 29.1021C68.4705 29.7435 68.6366 30.5051 68.6366 31.387C68.6366 32.2689 68.4705 33.0362 68.1384 33.689C67.8177 34.3304 67.3539 34.8286 66.7468 35.1837C66.1513 35.5387 65.4526 35.7162 64.6509 35.7162ZM64.6509 34.5996C65.4297 34.5996 66.0539 34.3247 66.5235 33.7749C66.9931 33.2137 67.2279 32.4178 67.2279 31.387C67.2279 30.3448 66.9931 29.5488 66.5235 28.999C66.0539 28.4493 65.4297 28.1744 64.6509 28.1744C63.8607 28.1744 63.2308 28.4493 62.7612 28.999C62.3031 29.5488 62.074 30.3448 62.074 31.387C62.074 32.4178 62.3031 33.2137 62.7612 33.7749C63.2308 34.3247 63.8607 34.5996 64.6509 34.5996Z" fill="#2B2B2B"/>
<path d="M73.2693 35.7162C72.4447 35.7162 71.8148 35.47 71.3795 34.9775C70.9443 34.4736 70.7267 33.7463 70.7267 32.7957V24.0341C70.7267 23.5646 70.9558 23.3298 71.4139 23.3298C71.8835 23.3298 72.1183 23.5646 72.1183 24.0341V32.6926C72.1183 33.9181 72.605 34.5308 73.5785 34.5308C73.6816 34.5308 73.7732 34.5251 73.8534 34.5137C73.9336 34.5022 74.0137 34.4965 74.0939 34.4965C74.2199 34.485 74.3058 34.5137 74.3516 34.5824C74.4089 34.6511 74.4375 34.7885 74.4375 34.9947C74.4375 35.3841 74.2428 35.6074 73.8534 35.6647C73.7618 35.6876 73.6644 35.699 73.5614 35.699C73.4583 35.7105 73.3609 35.7162 73.2693 35.7162Z" fill="#2B2B2B"/>
<path d="M78.765 35.7162C76.7607 35.7162 75.7586 34.611 75.7586 32.4006V27.7965C75.7586 27.3269 75.9876 27.0921 76.4458 27.0921C76.9153 27.0921 77.1501 27.3269 77.1501 27.7965V32.3834C77.1501 33.1278 77.299 33.6776 77.5968 34.0326C77.906 34.3877 78.3871 34.5652 79.0399 34.5652C79.75 34.5652 80.3283 34.3304 80.775 33.8608C81.2217 33.3798 81.445 32.7442 81.445 31.9539V27.7965C81.445 27.3269 81.6798 27.0921 82.1494 27.0921C82.6075 27.0921 82.8366 27.3269 82.8366 27.7965V34.9603C82.8366 35.4414 82.6132 35.6819 82.1666 35.6819C81.7084 35.6819 81.4794 35.4414 81.4794 34.9603V34.1529C81.216 34.6568 80.8437 35.0462 80.3627 35.3211C79.8931 35.5845 79.3606 35.7162 78.765 35.7162Z" fill="#2B2B2B"/>
<path d="M88.7901 35.7162C87.8051 35.7162 87.0664 35.4585 86.5739 34.9431C86.0814 34.4163 85.8352 33.6604 85.8352 32.6754V28.2947H84.6842C84.2833 28.2947 84.0829 28.1114 84.0829 27.7449C84.0829 27.3899 84.2833 27.2123 84.6842 27.2123H85.8352V25.2367C85.8352 24.7671 86.07 24.5323 86.5396 24.5323C86.9977 24.5323 87.2267 24.7671 87.2267 25.2367V27.2123H89.3914C89.7922 27.2123 89.9927 27.3899 89.9927 27.7449C89.9927 28.1114 89.7922 28.2947 89.3914 28.2947H87.2267V32.538C87.2267 33.1908 87.3642 33.689 87.639 34.0326C87.9139 34.3648 88.3606 34.5308 88.9791 34.5308C89.1967 34.5308 89.3799 34.5079 89.5288 34.4621C89.6777 34.4163 89.8094 34.3934 89.9239 34.3934C90.027 34.3819 90.1129 34.4163 90.1816 34.4965C90.2503 34.5766 90.2847 34.7141 90.2847 34.9088C90.2847 35.0462 90.2561 35.1722 90.1988 35.2867C90.153 35.4013 90.0671 35.4814 89.9411 35.5273C89.8037 35.5731 89.6204 35.6131 89.3914 35.6475C89.1738 35.6933 88.9733 35.7162 88.7901 35.7162Z" fill="#2B2B2B"/>
<path d="M92.234 25.2023C91.627 25.2023 91.3235 24.916 91.3235 24.3434C91.3235 23.7822 91.627 23.5016 92.234 23.5016C92.8411 23.5016 93.1446 23.7822 93.1446 24.3434C93.1446 24.916 92.8411 25.2023 92.234 25.2023ZM92.234 35.6475C91.7759 35.6475 91.5469 35.3955 91.5469 34.8916V27.8652C91.5469 27.3727 91.7759 27.1265 92.234 27.1265C92.7036 27.1265 92.9384 27.3727 92.9384 27.8652V34.8916C92.9384 35.3955 92.7036 35.6475 92.234 35.6475Z" fill="#2B2B2B"/>
<path d="M99.01 35.7162C98.1969 35.7162 97.4925 35.5387 96.8969 35.1837C96.3014 34.8286 95.8375 34.3304 95.5054 33.689C95.1847 33.0362 95.0244 32.2689 95.0244 31.387C95.0244 30.5051 95.1847 29.7435 95.5054 29.1021C95.8375 28.4493 96.3014 27.9453 96.8969 27.5903C97.4925 27.2353 98.1969 27.0577 99.01 27.0577C99.8117 27.0577 100.51 27.2353 101.106 27.5903C101.713 27.9453 102.177 28.4493 102.497 29.1021C102.83 29.7435 102.996 30.5051 102.996 31.387C102.996 32.2689 102.83 33.0362 102.497 33.689C102.177 34.3304 101.713 34.8286 101.106 35.1837C100.51 35.5387 99.8117 35.7162 99.01 35.7162ZM99.01 34.5996C99.7888 34.5996 100.413 34.3247 100.883 33.7749C101.352 33.2137 101.587 32.4178 101.587 31.387C101.587 30.3448 101.352 29.5488 100.883 28.999C100.413 28.4493 99.7888 28.1744 99.01 28.1744C98.2198 28.1744 97.5899 28.4493 97.1203 28.999C96.6622 29.5488 96.4331 30.3448 96.4331 31.387C96.4331 32.4178 96.6622 33.2137 97.1203 33.7749C97.5899 34.3247 98.2198 34.5996 99.01 34.5996Z" fill="#2B2B2B"/>
<path d="M105.773 35.6819C105.315 35.6819 105.086 35.4414 105.086 34.9603V27.7965C105.086 27.3269 105.309 27.0921 105.756 27.0921C106.214 27.0921 106.443 27.3269 106.443 27.7965V28.6383C106.718 28.1114 107.107 27.7163 107.611 27.4529C108.115 27.1894 108.682 27.0577 109.312 27.0577C111.293 27.0577 112.284 28.1572 112.284 30.3562V34.9603C112.284 35.4414 112.055 35.6819 111.597 35.6819C111.127 35.6819 110.893 35.4414 110.893 34.9603V30.4421C110.893 29.6633 110.738 29.0964 110.429 28.7413C110.131 28.3748 109.65 28.1916 108.986 28.1916C108.218 28.1916 107.605 28.4321 107.147 28.9131C106.701 29.3827 106.477 30.0126 106.477 30.8029V34.9603C106.477 35.4414 106.243 35.6819 105.773 35.6819Z" fill="#2B2B2B"/>
<path d="M117.667 35.7162C117.152 35.7162 116.631 35.6532 116.104 35.5273C115.589 35.3898 115.108 35.1722 114.661 34.8744C114.455 34.7484 114.352 34.5881 114.352 34.3934C114.363 34.1872 114.443 34.0269 114.592 33.9124C114.741 33.7978 114.93 33.7978 115.159 33.9124C115.606 34.1872 116.035 34.3819 116.448 34.4965C116.871 34.5996 117.289 34.6511 117.702 34.6511C118.355 34.6511 118.847 34.5308 119.179 34.2903C119.511 34.0498 119.677 33.7234 119.677 33.3111C119.677 32.9904 119.569 32.7384 119.351 32.5552C119.133 32.3605 118.79 32.2116 118.32 32.1085L116.757 31.7649C115.337 31.4557 114.627 30.7227 114.627 29.5659C114.627 28.81 114.924 28.203 115.52 27.7449C116.127 27.2868 116.917 27.0577 117.891 27.0577C118.383 27.0577 118.859 27.1265 119.317 27.2639C119.775 27.3899 120.187 27.596 120.554 27.8823C120.748 28.0198 120.834 28.1859 120.811 28.3806C120.788 28.5753 120.697 28.7299 120.536 28.8444C120.388 28.9475 120.204 28.9303 119.987 28.7929C119.643 28.5638 119.294 28.3977 118.939 28.2947C118.584 28.1801 118.234 28.1229 117.891 28.1229C117.249 28.1229 116.763 28.2488 116.43 28.5008C116.098 28.7528 115.932 29.0849 115.932 29.4972C115.932 30.1386 116.356 30.5509 117.204 30.7342L118.767 31.0606C119.5 31.2209 120.055 31.4786 120.433 31.8336C120.811 32.1772 121 32.6468 121 33.2424C121 34.0097 120.697 34.6167 120.09 35.0634C119.483 35.4986 118.675 35.7162 117.667 35.7162Z" fill="#2B2B2B"/>
<defs>
<linearGradient id="paint0_linear_110_297" x1="19.2411" y1="5.11499e-07" x2="27.8226" y2="23.1278" gradientUnits="userSpaceOnUse">
<stop stop-color="#25AAE2"/>
<stop offset="1" stop-color="#006AB8"/>
</linearGradient>
</defs>
</svg>
