<svg width="186" height="30" viewBox="0 0 186 30" fill="none" xmlns="http://www.w3.org/2000/svg">
<path d="M49.9771 15.7926L48.7282 13.0271H49.7987C50.0366 11.8178 50.4975 10.8712 51.1815 10.1872C51.8753 9.49336 52.8517 9.14643 54.1105 9.14643C54.3286 9.14643 54.5269 9.16129 54.7053 9.19103C54.8936 9.22077 55.072 9.25546 55.2405 9.29511L55.4636 13.8895C55.2554 13.83 55.0126 13.7903 54.735 13.7705C54.4575 13.7408 54.175 13.7259 53.8875 13.7259C52.9161 13.7259 52.0983 13.9093 51.4342 14.276C50.7701 14.6329 50.2844 15.1384 49.9771 15.7926ZM45.5166 24V9.38432H49.7987L49.6054 14.053L50.0663 14.1125V24H45.5166ZM64.3884 24.3717C61.7319 24.3717 59.7692 23.7819 58.5004 22.6024C57.2317 21.4129 56.5973 19.6832 56.5973 17.4133V15.8967C56.5973 13.6565 57.192 11.9417 58.3815 10.7522C59.571 9.55283 61.3007 8.95314 63.5706 8.95314C65.0971 8.95314 66.3659 9.21581 67.3769 9.74116C68.3979 10.2566 69.1611 10.9951 69.6666 11.9566C70.1821 12.9181 70.4398 14.0728 70.4398 15.4209V15.9116C70.4398 16.2882 70.42 16.6748 70.3803 17.0713C70.3506 17.4579 70.306 17.8197 70.2465 18.1567H66.1428C66.1825 17.5818 66.2073 17.0416 66.2172 16.536C66.2271 16.0206 66.232 15.5547 66.232 15.1384C66.232 14.5338 66.1379 14.0282 65.9495 13.6218C65.7612 13.2055 65.4688 12.8883 65.0723 12.6702C64.6857 12.4522 64.1851 12.3431 63.5706 12.3431C62.6587 12.3431 61.9896 12.5909 61.5633 13.0866C61.147 13.5723 60.9389 14.2661 60.9389 15.1681V16.5063L60.9686 16.997V18.0378C60.9686 18.4144 61.0281 18.7713 61.147 19.1083C61.2759 19.4453 61.494 19.7427 61.8012 20.0004C62.1184 20.2482 62.5496 20.4464 63.0948 20.5951C63.6499 20.7339 64.3537 20.8033 65.2061 20.8033C66.1081 20.8033 66.9755 20.719 67.8081 20.5505C68.6407 20.3721 69.4387 20.1342 70.2019 19.8368L69.8302 23.2566C69.1562 23.6035 68.3582 23.8761 67.4364 24.0743C66.5145 24.2726 65.4985 24.3717 64.3884 24.3717ZM59.006 18.1567V15.3466H69.3247V18.1567H59.006ZM81.185 24L81.3189 20.3424L81.2148 20.1193V15.5547L81.185 14.96C81.185 14.1472 80.9471 13.5475 80.4714 13.1609C79.9956 12.7743 79.1976 12.581 78.0775 12.581C77.0962 12.581 76.1645 12.7049 75.2823 12.9527C74.4001 13.2006 73.5674 13.4831 72.7844 13.8002L73.171 10.2764C73.6368 10.0584 74.1572 9.85516 74.7321 9.66682C75.317 9.46858 75.9613 9.30998 76.665 9.19103C77.3688 9.07208 78.1221 9.01261 78.925 9.01261C80.2037 9.01261 81.2743 9.16129 82.1366 9.45866C82.999 9.75603 83.6879 10.1773 84.2033 10.7225C84.7188 11.2677 85.0905 11.9219 85.3185 12.6851C85.5465 13.4384 85.6604 14.2711 85.6604 15.183V24H81.185ZM76.5312 24.342C75.0741 24.342 73.9689 23.9752 73.2156 23.2417C72.4622 22.5082 72.0856 21.4625 72.0856 20.1045V19.703C72.0856 18.2657 72.5267 17.2051 73.4088 16.5212C74.301 15.8273 75.7135 15.3565 77.6464 15.1087L81.5716 14.5883L81.8393 17.3241L78.36 17.8296C77.6563 17.9188 77.1607 18.0824 76.8732 18.3203C76.5857 18.5582 76.442 18.91 76.442 19.3759V19.48C76.442 19.926 76.5857 20.2829 76.8732 20.5505C77.1607 20.8082 77.6216 20.9371 78.256 20.9371C78.811 20.9371 79.2868 20.8528 79.6833 20.6843C80.0897 20.5158 80.4218 20.2978 80.6795 20.0301C80.9372 19.7526 81.1305 19.4453 81.2594 19.1083L81.8987 20.952H81.1553C80.9967 21.5864 80.7489 22.1613 80.4119 22.6767C80.0848 23.1921 79.609 23.5986 78.9845 23.8959C78.36 24.1933 77.5423 24.342 76.5312 24.342ZM88.5105 24V4.35879H93.0603V24H88.5105ZM109.168 24.3717C106.511 24.3717 104.549 23.7819 103.28 22.6024C102.011 21.4129 101.377 19.6832 101.377 17.4133V15.8967C101.377 13.6565 101.972 11.9417 103.161 10.7522C104.351 9.55283 106.08 8.95314 108.35 8.95314C109.877 8.95314 111.145 9.21581 112.156 9.74116C113.177 10.2566 113.941 10.9951 114.446 11.9566C114.962 12.9181 115.219 14.0728 115.219 15.4209V15.9116C115.219 16.2882 115.2 16.6748 115.16 17.0713C115.13 17.4579 115.086 17.8197 115.026 18.1567H110.922C110.962 17.5818 110.987 17.0416 110.997 16.536C111.007 16.0206 111.012 15.5547 111.012 15.1384C111.012 14.5338 110.917 14.0282 110.729 13.6218C110.541 13.2055 110.248 12.8883 109.852 12.6702C109.465 12.4522 108.965 12.3431 108.35 12.3431C107.438 12.3431 106.769 12.5909 106.343 13.0866C105.927 13.5723 105.718 14.2661 105.718 15.1681V16.5063L105.748 16.997V18.0378C105.748 18.4144 105.808 18.7713 105.927 19.1083C106.055 19.4453 106.274 19.7427 106.581 20.0004C106.898 20.2482 107.329 20.4464 107.874 20.5951C108.429 20.7339 109.133 20.8033 109.986 20.8033C110.888 20.8033 111.755 20.719 112.588 20.5505C113.42 20.3721 114.218 20.1342 114.981 19.8368L114.61 23.2566C113.936 23.6035 113.138 23.8761 112.216 24.0743C111.294 24.2726 110.278 24.3717 109.168 24.3717ZM103.786 18.1567V15.3466H114.104V18.1567H103.786ZM122.972 24.3568C121.812 24.3568 120.766 24.2528 119.835 24.0446C118.903 23.8464 118.105 23.6134 117.441 23.3458L117.054 19.5246C117.817 19.8418 118.66 20.1292 119.582 20.387C120.514 20.6348 121.52 20.7587 122.6 20.7587C123.463 20.7587 124.072 20.6695 124.429 20.491C124.796 20.3027 124.979 20.0153 124.979 19.6287V19.5692C124.979 19.3016 124.885 19.0835 124.697 18.915C124.518 18.7366 124.201 18.578 123.745 18.4392C123.299 18.3004 122.67 18.1369 121.857 17.9485C120.638 17.6611 119.671 17.3241 118.957 16.9375C118.244 16.541 117.733 16.0603 117.426 15.4953C117.129 14.9203 116.98 14.2413 116.98 13.4583V13.3393C116.98 11.8921 117.495 10.8117 118.526 10.098C119.557 9.37441 121.074 9.01261 123.076 9.01261C124.206 9.01261 125.222 9.11669 126.124 9.32485C127.026 9.53301 127.784 9.78081 128.399 10.0683L128.785 13.6218C128.072 13.3046 127.274 13.042 126.392 12.8338C125.519 12.6256 124.602 12.5216 123.641 12.5216C123.056 12.5216 122.595 12.5612 122.258 12.6405C121.931 12.7198 121.698 12.8338 121.559 12.9825C121.431 13.1312 121.366 13.3145 121.366 13.5326V13.5772C121.366 13.8151 121.445 14.0183 121.604 14.1868C121.763 14.3553 122.05 14.5139 122.466 14.6626C122.893 14.8113 123.502 14.9798 124.295 15.1681C125.524 15.4358 126.516 15.7431 127.269 16.09C128.022 16.427 128.572 16.8681 128.919 17.4133C129.266 17.9485 129.44 18.6622 129.44 19.5543V19.6882C129.44 21.2642 128.909 22.4388 127.849 23.212C126.788 23.9752 125.162 24.3568 122.972 24.3568ZM137.289 24.3271C135.991 24.3271 134.955 24.1338 134.182 23.7472C133.418 23.3507 132.868 22.761 132.531 21.9779C132.194 21.1948 132.026 20.2284 132.026 19.0785V10.9158H136.546V18.35C136.546 19.0637 136.704 19.589 137.021 19.926C137.348 20.2532 137.953 20.4167 138.835 20.4167C139.321 20.4167 139.802 20.3622 140.278 20.2532C140.753 20.1441 141.185 20.0053 141.571 19.8368L141.185 23.5986C140.679 23.8166 140.094 23.9901 139.43 24.1189C138.776 24.2577 138.062 24.3271 137.289 24.3271ZM130.063 13.0122V9.4438H141.437L141.036 13.0122H130.063ZM132.085 9.7709L132.07 5.99432L136.575 5.56313L136.412 9.7709H132.085ZM152.042 24L152.176 20.3424L152.072 20.1193V15.5547L152.042 14.96C152.042 14.1472 151.805 13.5475 151.329 13.1609C150.853 12.7743 150.055 12.581 148.935 12.581C147.954 12.581 147.022 12.7049 146.14 12.9527C145.257 13.2006 144.425 13.4831 143.642 13.8002L144.028 10.2764C144.494 10.0584 145.015 9.85516 145.59 9.66682C146.174 9.46858 146.819 9.30998 147.522 9.19103C148.226 9.07208 148.98 9.01261 149.782 9.01261C151.061 9.01261 152.132 9.16129 152.994 9.45866C153.856 9.75603 154.545 10.1773 155.061 10.7225C155.576 11.2677 155.948 11.9219 156.176 12.6851C156.404 13.4384 156.518 14.2711 156.518 15.183V24H152.042ZM147.389 24.342C145.932 24.342 144.826 23.9752 144.073 23.2417C143.32 22.5082 142.943 21.4625 142.943 20.1045V19.703C142.943 18.2657 143.384 17.2051 144.266 16.5212C145.158 15.8273 146.571 15.3565 148.504 15.1087L152.429 14.5883L152.697 17.3241L149.217 17.8296C148.514 17.9188 148.018 18.0824 147.731 18.3203C147.443 18.5582 147.299 18.91 147.299 19.3759V19.48C147.299 19.926 147.443 20.2829 147.731 20.5505C148.018 20.8082 148.479 20.9371 149.113 20.9371C149.668 20.9371 150.144 20.8528 150.541 20.6843C150.947 20.5158 151.279 20.2978 151.537 20.0301C151.795 19.7526 151.988 19.4453 152.117 19.1083L152.756 20.952H152.013C151.854 21.5864 151.606 22.1613 151.269 22.6767C150.942 23.1921 150.466 23.5986 149.842 23.8959C149.217 24.1933 148.4 24.342 147.389 24.342ZM165.022 24.3271C163.724 24.3271 162.688 24.1338 161.915 23.7472C161.151 23.3507 160.601 22.761 160.264 21.9779C159.927 21.1948 159.759 20.2284 159.759 19.0785V10.9158H164.279V18.35C164.279 19.0637 164.437 19.589 164.755 19.926C165.082 20.2532 165.686 20.4167 166.568 20.4167C167.054 20.4167 167.535 20.3622 168.011 20.2532C168.486 20.1441 168.918 20.0053 169.304 19.8368L168.918 23.5986C168.412 23.8166 167.827 23.9901 167.163 24.1189C166.509 24.2577 165.795 24.3271 165.022 24.3271ZM157.796 13.0122V9.4438H169.17L168.769 13.0122H157.796ZM159.818 9.7709L159.803 5.99432L164.308 5.56313L164.145 9.7709H159.818ZM178.283 24.3717C175.626 24.3717 173.664 23.7819 172.395 22.6024C171.126 21.4129 170.492 19.6832 170.492 17.4133V15.8967C170.492 13.6565 171.087 11.9417 172.276 10.7522C173.466 9.55283 175.195 8.95314 177.465 8.95314C178.992 8.95314 180.26 9.21581 181.271 9.74116C182.292 10.2566 183.056 10.9951 183.561 11.9566C184.077 12.9181 184.334 14.0728 184.334 15.4209V15.9116C184.334 16.2882 184.315 16.6748 184.275 17.0713C184.245 17.4579 184.201 17.8197 184.141 18.1567H180.037C180.077 17.5818 180.102 17.0416 180.112 16.536C180.122 16.0206 180.127 15.5547 180.127 15.1384C180.127 14.5338 180.032 14.0282 179.844 13.6218C179.656 13.2055 179.363 12.8883 178.967 12.6702C178.58 12.4522 178.08 12.3431 177.465 12.3431C176.553 12.3431 175.884 12.5909 175.458 13.0866C175.042 13.5723 174.833 14.2661 174.833 15.1681V16.5063L174.863 16.997V18.0378C174.863 18.4144 174.923 18.7713 175.042 19.1083C175.17 19.4453 175.389 19.7427 175.696 20.0004C176.013 20.2482 176.444 20.4464 176.989 20.5951C177.544 20.7339 178.248 20.8033 179.101 20.8033C180.003 20.8033 180.87 20.719 181.703 20.5505C182.535 20.3721 183.333 20.1342 184.097 19.8368L183.725 23.2566C183.051 23.6035 182.253 23.8761 181.331 24.0743C180.409 24.2726 179.393 24.3717 178.283 24.3717ZM172.901 18.1567V15.3466H183.219V18.1567H172.901Z" fill="#393939"/>
<line x1="76.4341" y1="27.9293" x2="119.976" y2="27.9293" stroke="white" stroke-width="0.0998663"/>
<line x1="1" y1="27.9059" x2="58.523" y2="27.9059" stroke="white" stroke-width="0.0998663"/>
<g opacity="0.5">
<path d="M11.5074 23.8958L20.283 23.9274C21.9561 23.959 24.7761 23.1499 27.0068 20.3288C29.1534 17.614 29.0587 13.9522 28.6168 12.5633C28.9698 15.1487 26.72 16.6577 25.6589 17.0755C25.2791 17.2251 23.4646 17.0439 21.9971 17.0439C20.7976 17.0439 17.6239 17.0566 14.6735 17.0124C13.3478 16.9925 12.6119 17.4543 12.1798 18.275C10.8445 20.8112 10.5834 21.3213 10.5435 21.4029C10.5331 21.4199 10.4983 21.4811 10.4026 21.6546L10.3867 21.6833C10.0876 22.2253 9.77177 22.7975 9.90518 23.1645C10.0677 23.6117 10.6867 23.8958 11.5074 23.8958Z" fill="url(#paint0_linear_261_318)"/>
<path d="M23.7555 18.214L13.7803 1.57814C15.8953 0.725835 19.4308 0.536428 22.6822 3.25119C24.6482 4.89268 25.2391 6.81827 28.0486 11.3008C29.2797 13.3211 28.979 15.9555 28.3643 17.7721C27.1027 21.5001 23.7555 23.5804 21.0091 23.8961C24.7719 22.3051 24.4079 19.4451 23.7555 18.214Z" fill="url(#paint1_linear_261_318)"/>
<g filter="url(#filter0_d_261_318)">
<path d="M1.12234 21.5468L8.95105 5.49244C10.0243 3.62998 11.6595 1.95061 15.1698 1.16774C18.68 0.38488 21.6621 2.26207 22.7143 3.28274C20.5678 1.79909 18.4528 2.52513 17.6005 3.28274C17.2953 3.55396 16.6989 4.29021 16.1479 5.65028C13.6541 11.8059 11.8551 15.991 10.5609 18.6426C9.84088 20.1178 9.29821 20.7366 8.95097 20.8523C7.02538 21.6205 3.11106 23.1757 2.85853 23.2514C2.43763 23.3777 1.72212 23.3777 1.24861 22.8726C0.869804 22.4686 1.0066 21.8204 1.12234 21.5468Z" fill="url(#paint2_linear_261_318)"/>
</g>
</g>
<path d="M11.5074 23.8958L20.283 23.9274C21.9561 23.959 24.7761 23.1499 27.0068 20.3288C29.1534 17.614 29.0587 13.9522 28.6168 12.5633C28.9698 15.1487 26.72 16.6577 25.6589 17.0755C25.2791 17.2251 23.4646 17.0439 21.9971 17.0439C20.7976 17.0439 17.6239 17.0566 14.6735 17.0124C13.3478 16.9925 12.6119 17.4543 12.1798 18.275C10.8445 20.8112 10.5834 21.3213 10.5435 21.4029C10.5331 21.4199 10.4983 21.4811 10.4026 21.6546L10.3867 21.6833C10.0876 22.2253 9.77177 22.7975 9.90518 23.1645C10.0677 23.6117 10.6867 23.8958 11.5074 23.8958Z" fill="url(#paint3_linear_261_318)"/>
<path d="M23.7555 18.214L13.7803 1.57814C15.8953 0.725835 19.4308 0.536428 22.6822 3.25119C24.6482 4.89268 25.2391 6.81827 28.0486 11.3008C29.2797 13.3211 28.979 15.9555 28.3643 17.7721C27.1027 21.5001 23.7555 23.5804 21.0091 23.8961C24.7719 22.3051 24.4079 19.4451 23.7555 18.214Z" fill="url(#paint4_linear_261_318)"/>
<path d="M23.7555 18.214L13.7803 1.57814C15.8953 0.725835 19.4308 0.536428 22.6822 3.25119C24.6482 4.89268 25.2391 6.81827 28.0486 11.3008C29.2797 13.3211 28.979 15.9555 28.3643 17.7721C27.1027 21.5001 23.7555 23.5804 21.0091 23.8961C24.7719 22.3051 24.4079 19.4451 23.7555 18.214Z" fill="url(#paint5_linear_261_318)"/>
<path d="M1.12234 21.5468L8.95105 5.49244C10.0243 3.62998 11.6595 1.95061 15.1698 1.16774C18.68 0.38488 21.6621 2.26207 22.7143 3.28274C20.5678 1.79909 18.4528 2.52513 17.6005 3.28274C17.2953 3.55396 16.6989 4.29021 16.1479 5.65028C13.6541 11.8059 11.8551 15.991 10.5609 18.6426C9.84088 20.1178 9.29821 20.7366 8.95097 20.8523C7.02538 21.6205 3.11106 23.1757 2.85853 23.2514C2.43763 23.3777 1.72212 23.3777 1.24861 22.8726C0.869804 22.4686 1.0066 21.8204 1.12234 21.5468Z" fill="url(#paint6_linear_261_318)"/>
<path d="M34.2137 11.4464C33.9961 11.8234 33.4519 11.8234 33.2342 11.4464L31.5449 8.52044C31.3273 8.14343 31.5994 7.67217 32.0347 7.67217L35.4133 7.67217C35.8486 7.67217 36.1207 8.14343 35.9031 8.52044L34.2137 11.4464Z" fill="#434343"/>
<path d="M33.034 10.4036C33.3397 9.48631 34.6373 9.48631 34.943 10.4036L37.7733 18.8946C37.9905 19.5461 37.5056 20.2189 36.8188 20.2189H31.1582C30.4714 20.2189 29.9865 19.5461 30.2037 18.8946L33.034 10.4036Z" fill="#434343"/>
<path d="M33.0809 24.1839C33.4741 24.7691 34.3315 24.779 34.7381 24.203L37.6735 20.0446C38.144 19.3781 37.6673 18.4582 36.8515 18.4582H31.1221C30.3168 18.4582 29.8378 19.357 30.2869 20.0254L33.0809 24.1839Z" fill="#434343"/>
<circle cx="33.7241" cy="3.75414" r="2.72948" fill="#434343"/>
<path d="M34.1981 11.4731C33.9873 11.8382 33.4603 11.8382 33.2495 11.4731L31.5293 8.49361C31.3185 8.1285 31.582 7.67212 32.0036 7.67212L35.4441 7.67212C35.8657 7.67212 36.1291 8.1285 35.9184 8.4936L34.1981 11.4731Z" fill="url(#paint7_linear_261_318)"/>
<path d="M33.0636 10.3132C33.3597 9.42488 34.6163 9.42488 34.9124 10.3132L37.7868 18.9364C37.9971 19.5674 37.5275 20.2189 36.8624 20.2189H31.1136C30.4485 20.2189 29.9789 19.5674 30.1892 18.9364L33.0636 10.3132Z" fill="url(#paint8_linear_261_318)"/>
<path d="M33.1062 24.2219C33.4869 24.7886 34.3173 24.7982 34.711 24.2405L37.7084 19.9942C38.164 19.3488 37.7024 18.4579 36.9123 18.4579H31.062C30.2821 18.4579 29.8183 19.3284 30.2532 19.9757L33.1062 24.2219Z" fill="url(#paint9_linear_261_318)"/>
<circle cx="33.7241" cy="3.75414" r="2.72948" fill="url(#paint10_linear_261_318)"/>
<circle cx="33.7241" cy="3.75414" r="2.72948" fill="url(#paint11_linear_261_318)"/>
<defs>
<filter id="filter0_d_261_318" x="0.73923" y="0.981689" width="22.2359" height="22.8614" filterUnits="userSpaceOnUse" color-interpolation-filters="sRGB">
<feFlood flood-opacity="0" result="BackgroundImageFix"/>
<feColorMatrix in="SourceAlpha" type="matrix" values="0 0 0 0 0 0 0 0 0 0 0 0 0 0 0 0 0 0 127 0" result="hardAlpha"/>
<feOffset dy="0.26077"/>
<feGaussianBlur stdDeviation="0.130385"/>
<feComposite in2="hardAlpha" operator="out"/>
<feColorMatrix type="matrix" values="0 0 0 0 0.0745098 0 0 0 0 0.321569 0 0 0 0 0.976471 0 0 0 0.2 0"/>
<feBlend mode="normal" in2="BackgroundImageFix" result="effect1_dropShadow_261_318"/>
<feBlend mode="normal" in="SourceGraphic" in2="effect1_dropShadow_261_318" result="shape"/>
</filter>
<linearGradient id="paint0_linear_261_318" x1="9.58182" y1="23.8643" x2="28.743" y2="16.1619" gradientUnits="userSpaceOnUse">
<stop stop-color="#4D9AFF"/>
<stop offset="0.856276" stop-color="#0046FF"/>
</linearGradient>
<linearGradient id="paint1_linear_261_318" x1="13.8118" y1="1.0415" x2="21.3395" y2="23.8961" gradientUnits="userSpaceOnUse">
<stop offset="0.15" stop-color="#0046FF"/>
<stop offset="1" stop-color="#4D9AFF"/>
</linearGradient>
<linearGradient id="paint2_linear_261_318" x1="22.7138" y1="3.25117" x2="0.364261" y2="23.9592" gradientUnits="userSpaceOnUse">
<stop stop-color="#4D9AFF"/>
<stop offset="1" stop-color="#0046FF"/>
</linearGradient>
<linearGradient id="paint3_linear_261_318" x1="22.4058" y1="29.7538" x2="10.8465" y2="14.6989" gradientUnits="userSpaceOnUse">
<stop stop-color="#784BFF"/>
<stop offset="1" stop-color="#AB69FE"/>
</linearGradient>
<linearGradient id="paint4_linear_261_318" x1="13.8118" y1="1.0415" x2="21.3395" y2="23.8961" gradientUnits="userSpaceOnUse">
<stop offset="0.15" stop-color="#0046FF"/>
<stop offset="1" stop-color="#4D9AFF"/>
</linearGradient>
<linearGradient id="paint5_linear_261_318" x1="13.7802" y1="1.01628" x2="30.4577" y2="19.2436" gradientUnits="userSpaceOnUse">
<stop stop-color="#AB69FE"/>
<stop offset="1" stop-color="#784BFF"/>
</linearGradient>
<linearGradient id="paint6_linear_261_318" x1="0.999877" y1="0.981617" x2="15.6641" y2="24.5571" gradientUnits="userSpaceOnUse">
<stop stop-color="#784BFF"/>
<stop offset="1" stop-color="#AB69FE"/>
</linearGradient>
<linearGradient id="paint7_linear_261_318" x1="30.0859" y1="7.67206" x2="42.0588" y2="16.7714" gradientUnits="userSpaceOnUse">
<stop stop-color="#AB69FE"/>
<stop offset="1" stop-color="#784BFF"/>
</linearGradient>
<linearGradient id="paint8_linear_261_318" x1="30.0859" y1="7.67206" x2="42.0588" y2="16.7714" gradientUnits="userSpaceOnUse">
<stop stop-color="#AB69FE"/>
<stop offset="1" stop-color="#784BFF"/>
</linearGradient>
<linearGradient id="paint9_linear_261_318" x1="30.0859" y1="7.67206" x2="42.0588" y2="16.7714" gradientUnits="userSpaceOnUse">
<stop stop-color="#AB69FE"/>
<stop offset="1" stop-color="#784BFF"/>
</linearGradient>
<linearGradient id="paint10_linear_261_318" x1="31.0844" y1="1.02466" x2="40.9491" y2="11.2763" gradientUnits="userSpaceOnUse">
<stop offset="0.22" stop-color="white"/>
<stop offset="1" stop-color="#999999"/>
</linearGradient>
<linearGradient id="paint11_linear_261_318" x1="30.9946" y1="1.02464" x2="34.5321" y2="6.87565" gradientUnits="userSpaceOnUse">
<stop stop-color="#AB69FE"/>
<stop offset="1" stop-color="#784BFF"/>
</linearGradient>
</defs>
</svg>
