<svg width="24" height="24" viewBox="0 0 24 24" fill="none" xmlns="http://www.w3.org/2000/svg">
<path d="M13.2363 2.86112L13.5617 2.48149L13.2363 2.86112ZM13.2363 2.86112L18.9762 7.78098C19.3087 8.06596 19.5 8.48198 19.5 8.91987V20C19.5 20.8284 18.8284 21.5 18 21.5H6C5.17157 21.5 4.5 20.8284 4.5 20V4C4.5 3.17157 5.17157 2.5 6 2.5H12.2602C12.6182 2.5 12.9645 2.62809 13.2363 2.86112Z" stroke="white"/>
<mask id="path-2-inside-1_218_344" fill="white">
<path fill-rule="evenodd" clip-rule="evenodd" d="M12.5 6V2.5H13.5V6C13.5 6.82843 14.1716 7.5 15 7.5H19.5V8.5H15C13.6193 8.5 12.5 7.38071 12.5 6Z"/>
</mask>
<path d="M12.5 2.5V1.5H11.5V2.5H12.5ZM13.5 2.5H14.5V1.5H13.5V2.5ZM19.5 7.5H20.5V6.5H19.5V7.5ZM19.5 8.5V9.5H20.5V8.5H19.5ZM13.5 6V2.5H11.5V6H13.5ZM12.5 3.5H13.5V1.5H12.5V3.5ZM12.5 2.5V6H14.5V2.5H12.5ZM12.5 6C12.5 7.38073 13.6193 8.5 15 8.5V6.5C14.7239 6.5 14.5 6.27613 14.5 6H12.5ZM15 8.5H19.5V6.5H15V8.5ZM18.5 7.5V8.5H20.5V7.5H18.5ZM19.5 7.5H15V9.5H19.5V7.5ZM15 7.5C14.1716 7.5 13.5 6.82842 13.5 6H11.5C11.5 7.933 13.067 9.5 15 9.5V7.5Z" fill="white" mask="url(#path-2-inside-1_218_344)"/>
<path fill-rule="evenodd" clip-rule="evenodd" d="M11.5 15.5H7V14.5H11.5V15.5Z" fill="white"/>
<path fill-rule="evenodd" clip-rule="evenodd" d="M14 18.5H7V17.5H14V18.5Z" fill="white"/>
</svg>
