<svg width="24" height="24" viewBox="0 0 24 24" fill="none" xmlns="http://www.w3.org/2000/svg">
<path d="M3 8.55556L3 12.1111C3.00001 14.386 3.87869 16.6608 5.63604 18.3965C9.15076 21.8678 14.8492 21.8678 18.364 18.3965C20.1213 16.6608 21 14.386 21 12.1111L21 8.55556M3 8.55556L3 6.77778C3 5.79594 3.80589 5 4.8 5H6.6C7.59411 5 8.4 5.79594 8.4 6.77778V8.55556M3 8.55556L8.4 8.55556M8.4 8.55556L8.4 12.1111C8.40003 13.021 8.7515 13.9309 9.45442 14.6252C10.8603 16.0137 13.1397 16.0137 14.5456 14.6252C15.2485 13.9309 15.6 13.021 15.6 12.1111V8.55556M15.6 8.55556V6.77778C15.6 5.79594 16.4059 5 17.4 5H19.2C20.1941 5 21 5.79594 21 6.77778L21 8.55556M15.6 8.55556H21" stroke="#fff" stroke-width="1.4"/>
</svg>
