<svg width="24" height="24" viewBox="0 0 24 24" fill="none" xmlns="http://www.w3.org/2000/svg">
<path d="M18 8L20.7575 7.31063C21.3886 7.15285 22 7.63021 22 8.28078V15.7192C22 16.3698 21.3886 16.8472 20.7575 16.6894L18 16M8.4 20H11.6C13.8402 20 14.9603 20 15.816 19.564C16.5686 19.1805 17.1805 18.5686 17.564 17.816C18 16.9603 18 15.8402 18 13.6V10.4C18 8.15979 18 7.03968 17.564 6.18404C17.1805 5.43139 16.5686 4.81947 15.816 4.43597C14.9603 4 13.8402 4 11.6 4H8.4C6.15979 4 5.03968 4 4.18404 4.43597C3.43139 4.81947 2.81947 5.43139 2.43597 6.18404C2 7.03968 2 8.15979 2 10.4V13.6C2 15.8402 2 16.9603 2.43597 17.816C2.81947 18.5686 3.43139 19.1805 4.18404 19.564C5.03968 20 6.15979 20 8.4 20Z" stroke="#fff" stroke-width="1.4" stroke-linecap="round"/>
</svg>
