<svg width="616" height="226" viewBox="0 0 616 226" fill="none" xmlns="http://www.w3.org/2000/svg">
<path d="M19.8532 43.611H62.5809C85.4552 43.611 95.0941 54.4008 95.0941 70.2259C95.0941 81.4473 90.2027 88.2089 81.1393 91.8055C90.3466 95.5459 95.5257 102.739 95.5257 113.961C95.5257 129.498 85.8868 140.719 63.0124 140.719H19.8532C14.3864 140.719 11.7968 138.13 11.7968 132.807V51.5235C11.7968 46.2006 14.3864 43.611 19.8532 43.611ZM28.4851 98.7109V122.305C28.4851 123.456 29.2044 123.887 30.3553 123.887H63.444C73.6584 123.887 78.4059 119.14 78.4059 111.227C78.4059 103.027 73.3707 98.7109 63.444 98.7109H28.4851ZM28.4851 62.0256V84.6123H63.0124C73.0829 84.6123 77.9743 80.8718 77.9743 72.9593C77.9743 65.3345 73.5145 60.2993 63.1563 60.2993H30.3553C29.2044 60.2993 28.4851 60.8747 28.4851 62.0256ZM114.911 43.611H167.566C189.433 43.611 198.784 57.1342 198.784 72.6716C198.784 84.7561 193.03 97.7039 178.212 101.876L200.798 140.719H181.952L159.797 103.171H134.477C132.894 103.171 132.031 103.89 132.031 105.616V140.719H115.055V102.308C115.055 91.3739 119.659 86.9141 130.305 86.9141H168.141C177.78 86.9141 181.664 80.2964 181.664 73.3909C181.664 66.4854 177.492 60.587 168.141 60.587H114.911V43.611Z" fill="#2F2F2F"/>
<path d="M258.325 62.6011L227.538 140.719H208.835L242.931 54.4008C246.528 45.3374 253.146 41.8847 263.36 41.8847C273.43 41.8847 280.048 45.3374 283.501 54.4008L316.302 140.719H297.456L267.964 62.6011C267.1 60.2993 265.518 59.2922 263.216 59.2922C260.914 59.2922 259.332 60.2993 258.325 62.6011Z" fill="url(#paint0_linear_229_147)"/>
<path d="M418.629 64.1766V141H401.653V63.3134C401.653 50.6534 408.846 42.1654 423.952 42.1654C437.475 42.1654 443.517 49.0709 447.546 60.1484L475.887 122.154C477.038 124.456 478.908 126.182 482.073 126.182C485.67 126.182 487.828 124.024 487.828 120.715V43.8918H504.947V121.434C504.947 134.238 497.61 142.726 482.648 142.726C469.125 142.726 462.939 135.821 458.911 124.743L430.57 62.738C429.275 59.8607 427.549 58.5659 424.527 58.5659C420.643 58.5659 418.629 60.7239 418.629 64.1766ZM518.313 43.8918H538.886L566.076 85.4685L593.554 43.8918H613.695L574.564 99.1356V141H557.444V99.1356L518.313 43.8918Z" fill="#2F2F2F"/>
<path d="M354.98 64.0243C353.749 66.1567 350.671 66.1567 349.44 64.0243L339.394 46.6227C338.162 44.4903 339.701 41.8249 342.164 41.8249H362.258C364.719 41.8249 366.258 44.4903 365.028 46.6227L354.98 64.0243Z" fill="url(#paint1_linear_229_147)"/>
<path d="M346.668 57.2503C348.398 52.062 355.736 52.062 357.466 57.2503L374.253 107.613C375.482 111.298 372.739 115.104 368.854 115.104H335.279C331.395 115.104 328.652 111.298 329.88 107.613L346.668 57.2503Z" fill="url(#paint2_linear_229_147)"/>
<path d="M346.917 138.483C349.14 141.793 353.99 141.848 356.29 138.591L373.796 113.791C376.457 110.021 373.761 104.818 369.147 104.818H334.978C330.423 104.818 327.714 109.903 330.254 113.683L346.917 138.483Z" fill="url(#paint3_linear_229_147)"/>
<path d="M352.21 34.8826C361.014 34.8826 368.151 27.7454 368.151 18.9413C368.151 10.1372 361.014 3 352.21 3C343.406 3 336.269 10.1372 336.269 18.9413C336.269 27.7454 343.406 34.8826 352.21 34.8826Z" fill="url(#paint4_linear_229_147)"/>
<path d="M206.888 165.527H226.016C236.256 165.527 240.571 170.357 240.571 177.442C240.571 182.465 238.381 185.492 234.324 187.103C238.446 188.777 240.764 191.997 240.764 197.021C240.764 203.976 236.449 209 226.209 209H206.888C204.44 209 203.281 207.841 203.281 205.458V169.069C203.281 166.686 204.44 165.527 206.888 165.527ZM210.752 190.194V200.756C210.752 201.271 211.074 201.465 211.589 201.465H226.402C230.975 201.465 233.1 199.339 233.1 195.797C233.1 192.126 230.846 190.194 226.402 190.194H210.752ZM210.752 173.771V183.882H226.209C230.717 183.882 232.907 182.208 232.907 178.666C232.907 175.252 230.911 172.998 226.273 172.998H211.589C211.074 172.998 210.752 173.256 210.752 173.771ZM267.605 165.527H273.53C286.153 165.527 293.173 172.74 293.173 187.36C293.173 201.916 286.218 209 273.53 209H267.605C254.917 209 247.962 201.916 247.962 187.36C247.962 172.74 254.982 165.527 267.605 165.527ZM273.53 173.127H267.605C259.232 173.127 255.561 177.378 255.561 187.36C255.561 197.278 259.168 201.4 267.605 201.4H273.53C281.903 201.4 285.509 197.278 285.509 187.296C285.509 177.378 281.903 173.127 273.53 173.127ZM313.68 165.527H335.706V173.127H313.422C309.494 173.127 307.755 175.252 307.755 178.279C307.755 180.92 309.107 183.432 314.195 183.432H324.371C336.222 183.432 338.991 190.001 338.991 196.248C338.991 203.59 335.062 209 325.144 209H300.928V201.4H325.402C329.524 201.4 331.391 199.146 331.391 195.99C331.391 193.157 329.91 190.58 324.564 190.58H314.453C302.86 190.58 300.155 184.076 300.155 178.022C300.155 170.808 304.019 165.527 313.68 165.527ZM358.964 165.527H380.991V173.127H358.707C354.778 173.127 353.039 175.252 353.039 178.279C353.039 180.92 354.392 183.432 359.48 183.432H369.655C381.506 183.432 384.275 190.001 384.275 196.248C384.275 203.59 380.347 209 370.428 209H346.212V201.4H370.686C374.808 201.4 376.675 199.146 376.675 195.99C376.675 193.157 375.194 190.58 369.849 190.58H359.737C348.144 190.58 345.439 184.076 345.439 178.022C345.439 170.808 349.304 165.527 358.964 165.527Z" fill="#2F2F2F"/>
<circle cx="351.5" cy="17.5" r="17" fill="url(#paint5_linear_229_147)" stroke="url(#paint6_linear_229_147)"/>
<path d="M365 18C365 18 358.305 18.7174 355.511 21.5111C352.717 24.3053 352 31 352 31C352 31 351.283 24.3053 348.489 21.5111C345.695 18.7174 339 18 339 18C339 18 345.695 17.2826 348.489 14.4889C351.283 11.6947 352 5 352 5C352 5 352.717 11.6947 355.511 14.4889C358.305 17.2826 365 18 365 18Z" fill="white"/>
<defs>
<linearGradient id="paint0_linear_229_147" x1="159.5" y1="7.71924" x2="159.5" y2="178.719" gradientUnits="userSpaceOnUse">
<stop stop-color="#AB69FE"/>
<stop offset="1" stop-color="#3E3099"/>
</linearGradient>
<linearGradient id="paint1_linear_229_147" x1="352" y1="160" x2="352" y2="-39" gradientUnits="userSpaceOnUse">
<stop stop-color="#6850FF"/>
<stop offset="1" stop-color="#AB69FE"/>
</linearGradient>
<linearGradient id="paint2_linear_229_147" x1="352" y1="160" x2="352" y2="-39" gradientUnits="userSpaceOnUse">
<stop stop-color="#6850FF"/>
<stop offset="1" stop-color="#AB69FE"/>
</linearGradient>
<linearGradient id="paint3_linear_229_147" x1="352" y1="160" x2="352" y2="-39" gradientUnits="userSpaceOnUse">
<stop stop-color="#6850FF"/>
<stop offset="1" stop-color="#AB69FE"/>
</linearGradient>
<linearGradient id="paint4_linear_229_147" x1="352" y1="160" x2="352" y2="-39" gradientUnits="userSpaceOnUse">
<stop stop-color="#6850FF"/>
<stop offset="1" stop-color="#AB69FE"/>
</linearGradient>
<linearGradient id="paint5_linear_229_147" x1="351.5" y1="0" x2="351.5" y2="35" gradientUnits="userSpaceOnUse">
<stop stop-color="#6850FF"/>
<stop offset="1" stop-color="#AB69FE"/>
</linearGradient>
<linearGradient id="paint6_linear_229_147" x1="351.5" y1="0" x2="351.5" y2="35" gradientUnits="userSpaceOnUse">
<stop stop-color="#6850FF"/>
<stop offset="1" stop-color="#AB69FE"/>
</linearGradient>
</defs>
</svg>
